<svg xmlns="http://www.w3.org/2000/svg" width="256" height="256" viewBox="0 0 100 100"><rect width="100" height="100" rx="20" fill="#000000"></rect><path d="M68.45 49.68L68.45 49.68L46.13 46.71Q32.45 77.77 19.58 81.72L19.58 81.72Q17.24 82.53 15.44 82.53L15.44 82.53Q8.69 82.53 7.16 76.86L7.16 76.86Q7.07 76.50 7.07 76.10Q7.07 75.69 7.21 75.11Q7.34 74.52 7.79 74.70Q8.24 74.88 8.69 76.41L8.69 76.41Q9.50 79.02 12.11 79.74L12.11 79.74Q14.09 80.10 15.57 80.10Q17.06 80.10 18.14 79.74L18.14 79.74Q31.28 75.60 42.71 46.27L42.71 46.27L37.94 45.99Q36.68 45.91 35.60 45.91L35.60 45.91Q24.17 45.91 21.56 53.28L21.56 53.28Q21.11 54.27 21.11 55.17Q21.11 56.07 21.65 56.97Q22.19 57.88 21.34 58.10Q20.48 58.32 19.94 57.52L19.94 57.52Q18.95 55.71 18.95 54.18L18.95 54.18Q18.95 48.69 20.98 46.04Q23 43.38 25.70 42.57L25.70 42.57Q28.94 41.67 32.90 41.67L32.90 41.67L38.39 42.21Q41.27 42.48 43.88 43.02L43.88 43.02Q46.04 37.27 49.10 27.54L49.10 27.54Q44.33 31.77 37.40 32.49L37.40 32.49Q36.50 32.59 36.45 31.86Q36.41 31.14 37.49 30.96L37.49 30.96Q41.36 30.60 45.45 27.00Q49.55 23.41 51.71 18.54L51.71 18.54Q51.89 17.46 54.68 17.46Q57.47 17.46 57.38 18.54L57.38 18.54Q56.84 19.89 53.38 28.94Q49.91 37.98 47.39 43.74L47.39 43.74Q49.73 44.19 54.23 45.27L54.23 45.27Q63.41 47.34 69.08 47.97L69.08 47.97Q74.30 36.90 75.60 33.80Q76.91 30.70 76.91 29.88Q76.91 29.07 76.64 28.63L76.64 28.63Q76.91 26.10 80.55 22.01Q84.20 17.91 87.44 17.91L87.44 17.91Q88.88 17.91 90.90 18.95Q92.93 19.98 92.93 21.60L92.93 21.60Q92.93 21.96 92.48 21.70Q92.03 21.42 91.85 21.42L91.85 21.42Q89.60 21.42 86.63 24.62Q83.66 27.81 80.78 32.85L80.78 32.85Q76.37 40.69 72.95 48.33L72.95 48.33Q80.69 48.33 83.30 45.09L83.30 45.09Q83.75 44.28 84.20 44.87Q84.65 45.45 83.88 46.58Q83.12 47.70 80.51 48.78Q77.90 49.86 72.23 49.86L72.23 49.86Q68 59.85 68 65.52L68 65.52Q68 69.94 70.56 69.94Q73.13 69.94 78.21 65.97Q83.30 62.01 87.80 55.98L87.80 55.98Q88.07 55.63 88.61 55.85Q89.15 56.07 88.92 56.66Q88.70 57.24 87.53 58.95L87.53 58.95Q83.75 64.08 78.26 68.49L78.26 68.49Q74.21 71.64 69.44 71.64L69.44 71.64Q67.01 71.64 65.70 70.20Q64.40 68.77 64.27 67.50Q64.13 66.24 64.13 65.16Q64.13 64.08 64.49 61.83L64.49 61.83Q65.39 56.07 68.45 49.68Z" fill="#fff"></path></svg>